<?xml version='1.0' encoding='iso-8859-1'?>
<!DOCTYPE svg PUBLIC '-//W3C//DTD SVG 1.1//EN' 'http://www.w3.org/Graphics/SVG/1.1/DTD/svg11.dtd'>
<!-- Uploaded to: SVG Repo, www.svgrepo.com, Generator: SVG Repo Mixer Tools -->
<svg fill="#000000" height="800px" width="800px" version="1.1" xmlns="http://www.w3.org/2000/svg" viewBox="0 0 297 297" xmlns:xlink="http://www.w3.org/1999/xlink" enable-background="new 0 0 297 297">
  <g>
    <path d="m117.2,102.747h16.733c1.155,0 2.091-0.936 2.091-2.091 0-1.155 0.936-2.091 2.091-2.091h53.143c0.978,0 1.825-0.678 2.04-1.632l3.767-16.733c0.294-1.308-0.7-2.551-2.04-2.551h-67.368c-6.931,0-12.549,5.618-12.549,12.549v10.458c0.001,1.155 0.937,2.091 2.092,2.091z"/>
    <path d="m194.588,267.457h-69.021c-5.775,0-10.458,4.682-10.458,10.458 0,5.775 4.682,10.458 10.458,10.458h69.021c5.775,0 10.458-4.682 10.458-10.458-0.001-5.776-4.683-10.458-10.458-10.458z"/>
    <path d="m164.21,253.339c3.493,0 6.325-2.832 6.325-6.325v-41.73c0-3.493-2.832-6.325-6.325-6.325h-8.265c-3.493,0-6.325,2.832-6.325,6.325v41.73c0,3.493 2.832,6.325 6.325,6.325h8.265z"/>
    <path d="m294.811,12.683c-1.981-2.558-5.034-4.055-8.269-4.055h-46.589c-4.767,0-8.931,3.224-10.125,7.839l-26.083,100.869h-112.657c-4.389,0-8.141,2.708-9.692,6.541-0.006,0.015-0.015,0.027-0.021,0.042l-43.494,109.027h-27.423c-5.776,0-10.458,4.683-10.458,10.458 0,5.775 4.682,10.458 10.458,10.458h34.511c4.28,0 8.127-2.607 9.713-6.583l24.908-62.438h166.796c4.767,0 8.931-3.224 10.125-7.839l40.157-155.297c0.809-3.133 0.124-6.465-1.857-9.022z"/>
  </g>
</svg>